<?xml version="1.0" encoding="UTF-8"?>
<svg id="Layer_1" data-name="Layer 1" xmlns="http://www.w3.org/2000/svg" viewBox="0 0 635.3 533.55">
  <defs>
    <style>
      .cls-1 {
        fill: #f5bd18;
      }

      .cls-2 {
        fill: #b4d569;
      }

      .cls-3 {
        fill: #27b173;
      }
    </style>
  </defs>
  <path class="cls-3" d="M178.18,533.55C79.93,533.55,0,453.62,0,355.37S79.93,177.18,178.18,177.18s178.18,79.93,178.18,178.18-79.93,178.18-178.18,178.18Zm0-355.37C80.48,178.18,1,257.67,1,355.37s79.48,177.18,177.18,177.18,177.18-79.48,177.18-177.18-79.48-177.18-177.18-177.18Z"/>
  <path class="cls-2" d="M455.11,447.22c-99.35,0-180.18-80.83-180.18-180.18s80.83-180.18,180.18-180.18,180.18,80.83,180.18,180.18-80.83,180.18-180.18,180.18Zm0-355.37c-96.6,0-175.18,78.59-175.18,175.18s78.59,175.18,175.18,175.18,175.18-78.59,175.18-175.18-78.59-175.18-175.18-175.18Z"/>
  <circle class="cls-1" cx="365.76" cy="177.68" r="177.68"/>
</svg>